{
  "accessors": [
    {
      "bufferView": 2,
      "componentType": 5126,
      "count": 12170,
      "max": [
        0.64999997615814209,
        1.4448000192642212,
        5.3695988655090332
      ],
      "min": [
        -0.076399996876716614,
        -6.242800235748291,
        -4.443699836730957
      ],
      "type": "VEC3"
    },
    {
      "bufferView": 2,
      "byteOffset": 146040,
      "componentType": 5126,
      "count": 12170,
      "max": [
        1,
        0.99997538328170776,
        0.99999988079071045
      ],
      "min": [
        -1,
        -0.99999988079071045,
        -0.99997502565383911
      ],
      "type": "VEC3"
    },
    {
      "bufferView": 3,
      "componentType": 5126,
      "count": 12170,
      "max": [
        0.9999997615814209,
        0.99762243032455444,
        0.99999982118606567,
        1
      ],
      "min": [
        -0.9999995231628418,
        -0.99950438737869263,
        -1,
        -1
      ],
      "type": "VEC4"
    },
    {
      "bufferView": 1,
      "componentType": 5126,
      "count": 12170,
      "max": [
        0.99459999799728394,
        -0.022600000724196434
      ],
      "min": [
        0.002199999988079071,
        -0.99779999256134033
      ],
      "type": "VEC2"
    },
    {
      "bufferView": 0,
      "componentType": 5125,
      "count": 41814,
      "max": [
        12169
      ],
      "min": [
        0
      ],
      "type": "SCALAR"
    }
  ],
  "asset": {
    "extras": {
      "author": "AvnisT (https://sketchfab.com/AvnisT)",
      "license": "CC-BY-4.0 (http://creativecommons.org/licenses/by/4.0/)",
      "source": "https://sketchfab.com/models/bd5b24edd9c54f6a908490f246cb45ff",
      "title": "KARAMBIT"
    },
    "generator": "Sketchfab-3.23.2",
    "version": "2.0"
  },
  "bufferViews": [
    {
      "buffer": 0,
      "byteLength": 167256,
      "byteOffset": 0,
      "name": "floatBufferViews",
      "target": 34963
    },
    {
      "buffer": 0,
      "byteLength": 97360,
      "byteOffset": 167256,
      "byteStride": 8,
      "name": "floatBufferViews",
      "target": 34962
    },
    {
      "buffer": 0,
      "byteLength": 292080,
      "byteOffset": 264616,
      "byteStride": 12,
      "name": "floatBufferViews",
      "target": 34962
    },
    {
      "buffer": 0,
      "byteLength": 194720,
      "byteOffset": 556696,
      "byteStride": 16,
      "name": "floatBufferViews",
      "target": 34962
    }
  ],
  "buffers": [
    {
      "byteLength": 751416,
      "uri": "scene.bin"
    }
  ],
  "images": [
    {
      "uri": "textures/Material__35_normal.png"
    },
    {
      "uri": "textures/Material__35_baseColor.png"
    }
  ],
  "materials": [
    {
      "doubleSided": true,
      "emissiveFactor": [
        0,
        0,
        0
      ],
      "name": "Material__35",
      "normalTexture": {
        "index": 0,
        "scale": 1,
        "texCoord": 0
      },
      "pbrMetallicRoughness": {
        "baseColorFactor": [
          1,
          1,
          1,
          1
        ],
        "baseColorTexture": {
          "index": 1,
          "texCoord": 0
        },
        "metallicFactor": 0.87366615849999996,
        "roughnessFactor": 0
      }
    }
  ],
  "meshes": [
    {
      "primitives": [
        {
          "attributes": {
            "NORMAL": 1,
            "POSITION": 0,
            "TANGENT": 2,
            "TEXCOORD_0": 3
          },
          "indices": 4,
          "material": 0,
          "mode": 4
        }
      ]
    }
  ],
  "nodes": [
    {
      "children": [
        1
      ],
      "name": "RootNode (gltf orientation matrix)",
      "rotation": [
        -0.70710678118654746,
        -0,
        -0,
        0.70710678118654757
      ]
    },
    {
      "children": [
        2
      ],
      "matrix": [
        -1,
        0,
        0,
        0,
        0,
        -0.54249107837677002,
        0.84006154537200928,
        0,
        0,
        0.84006154537200928,
        0.54249107837677002,
        0,
        0.57359856367111206,
        -4.0893411636352539,
        2.2271108627319336,
        1
      ],
      "name": "RootNode (model correction matrix)"
    },
    {
      "children": [
        3
      ],
      "name": "KERAMBIT.obj.cleaner.materialmerger.gles"
    },
    {
      "mesh": 0,
      "name": ""
    }
  ],
  "samplers": [
    {
      "magFilter": 9729,
      "minFilter": 9987,
      "wrapS": 10497,
      "wrapT": 10497
    }
  ],
  "scene": 0,
  "scenes": [
    {
      "name": "OSG_Scene",
      "nodes": [
        0
      ]
    }
  ],
  "textures": [
    {
      "sampler": 0,
      "source": 0
    },
    {
      "sampler": 0,
      "source": 1
    }
  ]
}

