{"accessors":[{"bufferView":2,"componentType":5126,"count":12170,"max":[0.6499999761581421,1.4448000192642212,5.369598865509033],"min":[-0.07639999687671661,-6.242800235748291,-4.443699836730957],"type":"VEC3"},{"bufferView":2,"byteOffset":146040,"componentType":5126,"count":12170,"max":[1,0.9999753832817078,0.9999998807907104],"min":[-1,-0.9999998807907104,-0.9999750256538391],"type":"VEC3"},{"bufferView":3,"componentType":5126,"count":12170,"max":[0.9999997615814209,0.9976224303245544,0.9999998211860657,1],"min":[-0.9999995231628418,-0.9995043873786926,-1,-1],"type":"VEC4"},{"bufferView":1,"componentType":5126,"count":12170,"max":[0.9945999979972839,-0.022600000724196434],"min":[0.002199999988079071,-0.9977999925613403],"type":"VEC2"},{"bufferView":0,"componentType":5125,"count":41814,"max":[12169],"min":[0],"type":"SCALAR"}],"asset":{"extras":{"author":"AvnisT (https://sketchfab.com/AvnisT)","license":"CC-BY-4.0 (http://creativecommons.org/licenses/by/4.0/)","source":"https://sketchfab.com/models/bd5b24edd9c54f6a908490f246cb45ff","title":"KARAMBIT"},"generator":"Sketchfab-3.23.2","version":"2.0"},"bufferViews":[{"buffer":0,"byteLength":167256,"byteOffset":0,"name":"floatBufferViews","target":34963},{"buffer":0,"byteLength":97360,"byteOffset":167256,"byteStride":8,"name":"floatBufferViews","target":34962},{"buffer":0,"byteLength":292080,"byteOffset":264616,"byteStride":12,"name":"floatBufferViews","target":34962},{"buffer":0,"byteLength":194720,"byteOffset":556696,"byteStride":16,"name":"floatBufferViews","target":34962}],"buffers":[{"byteLength":751416,"uri":"bins\\a35aa3267e92a2cf9031513160ef98dc.bin"}],"images":[{"uri":"bins\\8f5727cceb202376b87c9cab51982af5.png"},{"uri":"bins\\4d73ba15e8e8b056ec3602d814735a3a.png"}],"materials":[{"doubleSided":true,"emissiveFactor":[0,0,0],"name":"Material__35","normalTexture":{"index":0,"scale":1,"texCoord":0},"pbrMetallicRoughness":{"baseColorFactor":[1,1,1,1],"baseColorTexture":{"index":1,"texCoord":0},"metallicFactor":0.8736661585,"roughnessFactor":0}}],"meshes":[{"primitives":[{"attributes":{"NORMAL":1,"POSITION":0,"TANGENT":2,"TEXCOORD_0":3},"indices":4,"material":0,"mode":4}]}],"nodes":[{"children":[1],"name":"RootNode (gltf orientation matrix)","rotation":[-0.7071067811865475,0,0,0.7071067811865476]},{"children":[2],"matrix":[-1,0,0,0,0,-0.54249107837677,0.8400615453720093,0,0,0.8400615453720093,0.54249107837677,0,0.5735985636711121,-4.089341163635254,2.2271108627319336,1],"name":"RootNode (model correction matrix)"},{"children":[3],"name":"KERAMBIT.obj.cleaner.materialmerger.gles"},{"mesh":0,"name":""}],"samplers":[{"magFilter":9729,"minFilter":9987,"wrapS":10497,"wrapT":10497}],"scene":0,"scenes":[{"name":"OSG_Scene","nodes":[0]}],"textures":[{"sampler":0,"source":0},{"sampler":0,"source":1}]}